<svg version="1.1" xmlns="http://www.w3.org/2000/svg" xmlns:xlink="http://www.w3.org/1999/xlink" width="1428" height="1085"><defs/><g><g transform="translate(-342,-22) scale(1,1)"><rect fill="#C0C0C0" stroke="none" x="1431" y="423" width="146.998046875" height="190" opacity="0.2"/></g><g transform="translate(-342,-22) scale(1,1)"><rect fill="#ffffff" stroke="none" x="1424" y="416" width="146.998046875" height="190"/></g><g transform="translate(-342,-22) scale(1,1)"><path fill="none" stroke="#000000" d="M 1424 416 L 1570.998046875 416 L 1570.998046875 606 L 1424 606 L 1424 416 Z Z" stroke-miterlimit="10"/></g><g transform="translate(-342,-22) scale(1,1)"><path fill="none" stroke="#000000" d="M 1424 456 L 1570.998046875 456" stroke-miterlimit="10"/></g><g transform="translate(-342,-22) scale(1,1)"><path fill="none" stroke="#000000" d="M 1424 494 L 1570.998046875 494" stroke-miterlimit="10"/></g><g transform="translate(-342,-22) scale(1,1)"><g><path fill="none" stroke="none"/><text fill="#000000" stroke="none" font-family="Arial" font-size="13px" font-style="normal" font-weight="bold" text-decoration="none" x="1474.37451171875" y="435.5">Counter</text></g></g><g transform="translate(-342,-22) scale(1,1)"><g><path fill="none" stroke="none"/><text fill="#000000" stroke="none" font-family="Arial" font-size="13px" font-style="normal" font-weight="normal" text-decoration="none" x="1440.430419921875" y="450.5">(from JavaReverse)</text></g></g><g transform="translate(-342,-22) scale(1,1)"><g><path fill="none" stroke="none"/><text fill="#000000" stroke="none" font-family="Arial" font-size="13px" font-style="normal" font-weight="normal" text-decoration="none" x="1429" y="473.5">-totalCnt: int = 0</text></g></g><g transform="translate(-342,-22) scale(1,1)"><g><path fill="none" stroke="none"/><text fill="#000000" stroke="none" font-family="Arial" font-size="13px" font-style="normal" font-weight="normal" text-decoration="none" x="1429" y="488.5">-finishedCnt: int = 0</text></g></g><g transform="translate(-342,-22) scale(1,1)"><g><path fill="none" stroke="none"/><text fill="#000000" stroke="none" font-family="Arial" font-size="13px" font-style="normal" font-weight="normal" text-decoration="none" x="1429" y="513.5">+getInstance(): Counter</text><path fill="none" stroke="#000000" d="M 1429 513.5 L 1565.93798828125 513.5" stroke-miterlimit="10"/></g></g><g transform="translate(-342,-22) scale(1,1)"><g><path fill="none" stroke="none"/><text fill="#000000" stroke="none" font-family="Arial" font-size="13px" font-style="normal" font-weight="normal" text-decoration="none" x="1429" y="528.5">+addFinished(): void</text></g></g><g transform="translate(-342,-22) scale(1,1)"><g><path fill="none" stroke="none"/><text fill="#000000" stroke="none" font-family="Arial" font-size="13px" font-style="normal" font-weight="normal" text-decoration="none" x="1429" y="543.5">+addTotal(): void</text></g></g><g transform="translate(-342,-22) scale(1,1)"><g><path fill="none" stroke="none"/><text fill="#000000" stroke="none" font-family="Arial" font-size="13px" font-style="normal" font-weight="normal" text-decoration="none" x="1429" y="558.5">+isEnd(): boolean</text></g></g><g transform="translate(-342,-22) scale(1,1)"><g><path fill="none" stroke="none"/><text fill="#000000" stroke="none" font-family="Arial" font-size="13px" font-style="normal" font-weight="normal" text-decoration="none" x="1429" y="573.5">+getFinishedCnt(): int</text></g></g><g transform="translate(-342,-22) scale(1,1)"><g><path fill="none" stroke="none"/><text fill="#000000" stroke="none" font-family="Arial" font-size="13px" font-style="normal" font-weight="normal" text-decoration="none" x="1429" y="588.5">+getTotalCnt(): int</text></g></g><g transform="translate(-342,-22) scale(1,1)"><rect fill="#C0C0C0" stroke="none" x="359" y="439" width="384" height="256" opacity="0.2"/></g><g transform="translate(-342,-22) scale(1,1)"><rect fill="#ffffff" stroke="none" x="352" y="432" width="384" height="256"/></g><g transform="translate(-342,-22) scale(1,1)"><path fill="none" stroke="#000000" d="M 352 432 L 736 432 L 736 688 L 352 688 L 352 432 Z Z" stroke-miterlimit="10"/></g><g transform="translate(-342,-22) scale(1,1)"><path fill="none" stroke="#000000" d="M 352 472 L 736 472" stroke-miterlimit="10"/></g><g transform="translate(-342,-22) scale(1,1)"><path fill="none" stroke="#000000" d="M 352 495 L 736 495" stroke-miterlimit="10"/></g><g transform="translate(-342,-22) scale(1,1)"><g><path fill="none" stroke="none"/><text fill="#000000" stroke="none" font-family="Arial" font-size="13px" font-style="normal" font-weight="bold" text-decoration="none" x="512.931396484375" y="451.5">Dispatcher</text></g></g><g transform="translate(-342,-22) scale(1,1)"><g><path fill="none" stroke="none"/><text fill="#000000" stroke="none" font-family="Arial" font-size="13px" font-style="normal" font-weight="normal" text-decoration="none" x="486.931396484375" y="466.5">(from JavaReverse)</text></g></g><g transform="translate(-342,-22) scale(1,1)"><g><path fill="none" stroke="none"/><text fill="#000000" stroke="none" font-family="Arial" font-size="13px" font-style="normal" font-weight="normal" text-decoration="none" x="357" y="489.5">-end: boolean</text><path fill="none" stroke="#000000" d="M 357 489.5 L 436.5107421875 489.5" stroke-miterlimit="10"/></g></g><g transform="translate(-342,-22) scale(1,1)"><g><path fill="none" stroke="none"/><text fill="#000000" stroke="none" font-family="Arial" font-size="13px" font-style="normal" font-weight="normal" text-decoration="none" x="357" y="512.5">«constructor»+Dispatcher()</text></g></g><g transform="translate(-342,-22) scale(1,1)"><g><path fill="none" stroke="none"/><text fill="#000000" stroke="none" font-family="Arial" font-size="13px" font-style="normal" font-weight="normal" text-decoration="none" x="357" y="527.5">-init(): void</text><path fill="none" stroke="#000000" d="M 357 527.5 L 417.67724609375 527.5" stroke-miterlimit="10"/></g></g><g transform="translate(-342,-22) scale(1,1)"><g><path fill="none" stroke="none"/><text fill="#000000" stroke="none" font-family="Arial" font-size="13px" font-style="normal" font-weight="normal" text-decoration="none" x="357" y="542.5">+putPassenger(passenger: Passenger): void</text><path fill="none" stroke="#000000" d="M 357 542.5 L 614.6259765625 542.5" stroke-miterlimit="10"/></g></g><g transform="translate(-342,-22) scale(1,1)"><g><path fill="none" stroke="none"/><text fill="#000000" stroke="none" font-family="Arial" font-size="13px" font-style="normal" font-weight="normal" text-decoration="none" x="357" y="557.5">+getPassenger(building: int, floor: int): Passenger[*]</text><path fill="none" stroke="#000000" d="M 357 557.5 L 654.3623046875 557.5" stroke-miterlimit="10"/></g></g><g transform="translate(-342,-22) scale(1,1)"><g><path fill="none" stroke="none"/><text fill="#000000" stroke="none" font-family="Arial" font-size="13px" font-style="normal" font-weight="normal" text-decoration="none" x="357" y="572.5">+isEmpty(building: int): boolean</text><path fill="none" stroke="#000000" d="M 357 572.5 L 538.73974609375 572.5" stroke-miterlimit="10"/></g></g><g transform="translate(-342,-22) scale(1,1)"><g><path fill="none" stroke="none"/><text fill="#000000" stroke="none" font-family="Arial" font-size="13px" font-style="normal" font-weight="normal" text-decoration="none" x="357" y="587.5">+setEnd(): void</text><path fill="none" stroke="#000000" d="M 357 587.5 L 444.79443359375 587.5" stroke-miterlimit="10"/></g></g><g transform="translate(-342,-22) scale(1,1)"><g><path fill="none" stroke="none"/><text fill="#000000" stroke="none" font-family="Arial" font-size="13px" font-style="normal" font-weight="normal" text-decoration="none" x="357" y="602.5">+isEnd(): boolean</text><path fill="none" stroke="#000000" d="M 357 602.5 L 459.2607421875 602.5" stroke-miterlimit="10"/></g></g><g transform="translate(-342,-22) scale(1,1)"><rect fill="#C0C0C0" stroke="none" x="767" y="135" width="483.96337890625" height="560" opacity="0.2"/></g><g transform="translate(-342,-22) scale(1,1)"><rect fill="#ffffff" stroke="none" x="760" y="128" width="483.96337890625" height="560"/></g><g transform="translate(-342,-22) scale(1,1)"><path fill="none" stroke="#000000" d="M 760 128 L 1243.96337890625 128 L 1243.96337890625 688 L 760 688 L 760 128 Z Z" stroke-miterlimit="10"/></g><g transform="translate(-342,-22) scale(1,1)"><path fill="none" stroke="#000000" d="M 760 168 L 1243.96337890625 168" stroke-miterlimit="10"/></g><g transform="translate(-342,-22) scale(1,1)"><path fill="none" stroke="#000000" d="M 760 371 L 1243.96337890625 371" stroke-miterlimit="10"/></g><g transform="translate(-342,-22) scale(1,1)"><g><path fill="none" stroke="none"/><text fill="#000000" stroke="none" font-family="Arial" font-size="13px" font-style="normal" font-weight="bold" text-decoration="none" x="968.383544921875" y="147.5">ElevatorCol</text></g></g><g transform="translate(-342,-22) scale(1,1)"><g><path fill="none" stroke="none"/><text fill="#000000" stroke="none" font-family="Arial" font-size="13px" font-style="normal" font-weight="normal" text-decoration="none" x="944.9130859375" y="162.5">(from JavaReverse)</text></g></g><g transform="translate(-342,-22) scale(1,1)"><g><path fill="none" stroke="none"/><text fill="#000000" stroke="none" font-family="Arial" font-size="13px" font-style="normal" font-weight="normal" text-decoration="none" x="765" y="185.5">-id: int</text></g></g><g transform="translate(-342,-22) scale(1,1)"><g><path fill="none" stroke="none"/><text fill="#000000" stroke="none" font-family="Arial" font-size="13px" font-style="normal" font-weight="normal" text-decoration="none" x="765" y="200.5">-building: int</text></g></g><g transform="translate(-342,-22) scale(1,1)"><g><path fill="none" stroke="none"/><text fill="#000000" stroke="none" font-family="Arial" font-size="13px" font-style="normal" font-weight="normal" text-decoration="none" x="765" y="215.5">-passengerNum: int</text></g></g><g transform="translate(-342,-22) scale(1,1)"><g><path fill="none" stroke="none"/><text fill="#000000" stroke="none" font-family="Arial" font-size="13px" font-style="normal" font-weight="normal" text-decoration="none" x="765" y="230.5">-passengerMax: int</text></g></g><g transform="translate(-342,-22) scale(1,1)"><g><path fill="none" stroke="none"/><text fill="#000000" stroke="none" font-family="Arial" font-size="13px" font-style="normal" font-weight="normal" text-decoration="none" x="765" y="245.5">-passengerLinkedListArrayList: LinkedList&lt;Passenger&gt;[*] {collection="ArrayList"}</text></g></g><g transform="translate(-342,-22) scale(1,1)"><g><path fill="none" stroke="none"/><text fill="#000000" stroke="none" font-family="Arial" font-size="13px" font-style="normal" font-weight="normal" text-decoration="none" x="765" y="260.5">-targetFloor: int</text></g></g><g transform="translate(-342,-22) scale(1,1)"><g><path fill="none" stroke="none"/><text fill="#000000" stroke="none" font-family="Arial" font-size="13px" font-style="normal" font-weight="normal" text-decoration="none" x="765" y="275.5">-nowFloor: int</text></g></g><g transform="translate(-342,-22) scale(1,1)"><g><path fill="none" stroke="none"/><text fill="#000000" stroke="none" font-family="Arial" font-size="13px" font-style="normal" font-weight="normal" text-decoration="none" x="765" y="290.5">-dir: int</text></g></g><g transform="translate(-342,-22) scale(1,1)"><g><path fill="none" stroke="none"/><text fill="#000000" stroke="none" font-family="Arial" font-size="13px" font-style="normal" font-weight="normal" text-decoration="none" x="765" y="305.5">-speed: double</text></g></g><g transform="translate(-342,-22) scale(1,1)"><g><path fill="none" stroke="none"/><text fill="#000000" stroke="none" font-family="Arial" font-size="13px" font-style="normal" font-weight="normal" text-decoration="none" x="765" y="320.5">-nowFloorPassengersLinkedList: LinkedList&lt;Passenger&gt;[*] {collection="ArrayList"}</text></g></g><g transform="translate(-342,-22) scale(1,1)"><g><path fill="none" stroke="none"/><text fill="#000000" stroke="none" font-family="Arial" font-size="13px" font-style="normal" font-weight="normal" text-decoration="none" x="765" y="335.5">-openFlag: boolean = false</text></g></g><g transform="translate(-342,-22) scale(1,1)"><g><path fill="none" stroke="none"/><text fill="#000000" stroke="none" font-family="Arial" font-size="13px" font-style="normal" font-weight="normal" text-decoration="none" x="765" y="350.5">-openTag: boolean = false</text></g></g><g transform="translate(-342,-22) scale(1,1)"><g><path fill="none" stroke="none"/><text fill="#000000" stroke="none" font-family="Arial" font-size="13px" font-style="normal" font-weight="normal" text-decoration="none" x="765" y="365.5">-needSleep400: boolean = false</text></g></g><g transform="translate(-342,-22) scale(1,1)"><g><path fill="none" stroke="none"/><text fill="#000000" stroke="none" font-family="Arial" font-size="13px" font-style="normal" font-weight="normal" text-decoration="none" x="765" y="388.5">+isFull(): boolean</text></g></g><g transform="translate(-342,-22) scale(1,1)"><g><path fill="none" stroke="none"/><text fill="#000000" stroke="none" font-family="Arial" font-size="13px" font-style="normal" font-weight="normal" text-decoration="none" x="765" y="403.5">+addPassengerLinkedList(linkedList: Passenger[*]): void</text></g></g><g transform="translate(-342,-22) scale(1,1)"><g><path fill="none" stroke="none"/><text fill="#000000" stroke="none" font-family="Arial" font-size="13px" font-style="normal" font-weight="normal" text-decoration="none" x="765" y="418.5">+removePassengerLinkedList(linkedList: Passenger[*]): void</text></g></g><g transform="translate(-342,-22) scale(1,1)"><g><path fill="none" stroke="none"/><text fill="#000000" stroke="none" font-family="Arial" font-size="13px" font-style="normal" font-weight="normal" text-decoration="none" x="765" y="433.5">+arrive(): void</text></g></g><g transform="translate(-342,-22) scale(1,1)"><g><path fill="none" stroke="none"/><text fill="#000000" stroke="none" font-family="Arial" font-size="13px" font-style="normal" font-weight="normal" text-decoration="none" x="765" y="448.5">+open(): void</text></g></g><g transform="translate(-342,-22) scale(1,1)"><g><path fill="none" stroke="none"/><text fill="#000000" stroke="none" font-family="Arial" font-size="13px" font-style="normal" font-weight="normal" text-decoration="none" x="765" y="463.5">-out(): void</text></g></g><g transform="translate(-342,-22) scale(1,1)"><g><path fill="none" stroke="none"/><text fill="#000000" stroke="none" font-family="Arial" font-size="13px" font-style="normal" font-weight="normal" text-decoration="none" x="765" y="478.5">+in(linkedList: Passenger[*]): void</text></g></g><g transform="translate(-342,-22) scale(1,1)"><g><path fill="none" stroke="none"/><text fill="#000000" stroke="none" font-family="Arial" font-size="13px" font-style="normal" font-weight="normal" text-decoration="none" x="765" y="493.5">+close(): void</text></g></g><g transform="translate(-342,-22) scale(1,1)"><g><path fill="none" stroke="none"/><text fill="#000000" stroke="none" font-family="Arial" font-size="13px" font-style="normal" font-weight="normal" text-decoration="none" x="765" y="508.5">+getIn(): void</text></g></g><g transform="translate(-342,-22) scale(1,1)"><g><path fill="none" stroke="none"/><text fill="#000000" stroke="none" font-family="Arial" font-size="13px" font-style="normal" font-weight="normal" text-decoration="none" x="765" y="523.5">+sleep400(): void</text></g></g><g transform="translate(-342,-22) scale(1,1)"><g><path fill="none" stroke="none"/><text fill="#000000" stroke="none" font-family="Arial" font-size="13px" font-style="normal" font-weight="normal" text-decoration="none" x="765" y="538.5">+allIn(): void</text></g></g><g transform="translate(-342,-22) scale(1,1)"><g><path fill="none" stroke="none"/><text fill="#000000" stroke="none" font-family="Arial" font-size="13px" font-style="normal" font-weight="normal" text-decoration="none" x="765" y="553.5">+synInBef(): void</text></g></g><g transform="translate(-342,-22) scale(1,1)"><g><path fill="none" stroke="none"/><text fill="#000000" stroke="none" font-family="Arial" font-size="13px" font-style="normal" font-weight="normal" text-decoration="none" x="765" y="568.5">+synInAft(): void</text></g></g><g transform="translate(-342,-22) scale(1,1)"><g><path fill="none" stroke="none"/><text fill="#000000" stroke="none" font-family="Arial" font-size="13px" font-style="normal" font-weight="normal" text-decoration="none" x="765" y="583.5">+move(): void</text></g></g><g transform="translate(-342,-22) scale(1,1)"><g><path fill="none" stroke="none"/><text fill="#000000" stroke="none" font-family="Arial" font-size="13px" font-style="normal" font-weight="normal" text-decoration="none" x="765" y="598.5">+sleepMove(): void</text></g></g><g transform="translate(-342,-22) scale(1,1)"><g><path fill="none" stroke="none"/><text fill="#000000" stroke="none" font-family="Arial" font-size="13px" font-style="normal" font-weight="normal" text-decoration="none" x="765" y="613.5">+getTargetFloor(): void</text></g></g><g transform="translate(-342,-22) scale(1,1)"><g><path fill="none" stroke="none"/><text fill="#000000" stroke="none" font-family="Arial" font-size="13px" font-style="normal" font-weight="normal" text-decoration="none" x="765" y="628.5">+run(): void</text></g></g><g transform="translate(-342,-22) scale(1,1)"><rect fill="#C0C0C0" stroke="none" x="1263" y="135" width="500.6005859375" height="565" opacity="0.2"/></g><g transform="translate(-342,-22) scale(1,1)"><rect fill="#ffffff" stroke="none" x="1256" y="128" width="500.6005859375" height="565"/></g><g transform="translate(-342,-22) scale(1,1)"><path fill="none" stroke="#000000" d="M 1256 128 L 1756.6005859375 128 L 1756.6005859375 693 L 1256 693 L 1256 128 Z Z" stroke-miterlimit="10"/></g><g transform="translate(-342,-22) scale(1,1)"><path fill="none" stroke="#000000" d="M 1256 168 L 1756.6005859375 168" stroke-miterlimit="10"/></g><g transform="translate(-342,-22) scale(1,1)"><path fill="none" stroke="#000000" d="M 1256 386 L 1756.6005859375 386" stroke-miterlimit="10"/></g><g transform="translate(-342,-22) scale(1,1)"><g><path fill="none" stroke="none"/><text fill="#000000" stroke="none" font-family="Arial" font-size="13px" font-style="normal" font-weight="bold" text-decoration="none" x="1469.4521484375" y="147.5">ElevatorRow</text></g></g><g transform="translate(-342,-22) scale(1,1)"><g><path fill="none" stroke="none"/><text fill="#000000" stroke="none" font-family="Arial" font-size="13px" font-style="normal" font-weight="normal" text-decoration="none" x="1449.231689453125" y="162.5">(from JavaReverse)</text></g></g><g transform="translate(-342,-22) scale(1,1)"><g><path fill="none" stroke="none"/><text fill="#000000" stroke="none" font-family="Arial" font-size="13px" font-style="normal" font-weight="normal" text-decoration="none" x="1261" y="185.5">-id: int</text></g></g><g transform="translate(-342,-22) scale(1,1)"><g><path fill="none" stroke="none"/><text fill="#000000" stroke="none" font-family="Arial" font-size="13px" font-style="normal" font-weight="normal" text-decoration="none" x="1261" y="200.5">-floor: int</text></g></g><g transform="translate(-342,-22) scale(1,1)"><g><path fill="none" stroke="none"/><text fill="#000000" stroke="none" font-family="Arial" font-size="13px" font-style="normal" font-weight="normal" text-decoration="none" x="1261" y="215.5">-passengerNum: int</text></g></g><g transform="translate(-342,-22) scale(1,1)"><g><path fill="none" stroke="none"/><text fill="#000000" stroke="none" font-family="Arial" font-size="13px" font-style="normal" font-weight="normal" text-decoration="none" x="1261" y="230.5">-passengerMax: int</text></g></g><g transform="translate(-342,-22) scale(1,1)"><g><path fill="none" stroke="none"/><text fill="#000000" stroke="none" font-family="Arial" font-size="13px" font-style="normal" font-weight="normal" text-decoration="none" x="1261" y="245.5">-passengerLinkedListArrayList: LinkedList&lt;Passenger&gt;[*] {collection="ArrayList"}</text></g></g><g transform="translate(-342,-22) scale(1,1)"><g><path fill="none" stroke="none"/><text fill="#000000" stroke="none" font-family="Arial" font-size="13px" font-style="normal" font-weight="normal" text-decoration="none" x="1261" y="260.5">-targetBuilding: int</text></g></g><g transform="translate(-342,-22) scale(1,1)"><g><path fill="none" stroke="none"/><text fill="#000000" stroke="none" font-family="Arial" font-size="13px" font-style="normal" font-weight="normal" text-decoration="none" x="1261" y="275.5">-nowBuilding: int</text></g></g><g transform="translate(-342,-22) scale(1,1)"><g><path fill="none" stroke="none"/><text fill="#000000" stroke="none" font-family="Arial" font-size="13px" font-style="normal" font-weight="normal" text-decoration="none" x="1261" y="290.5">-dir: int</text></g></g><g transform="translate(-342,-22) scale(1,1)"><g><path fill="none" stroke="none"/><text fill="#000000" stroke="none" font-family="Arial" font-size="13px" font-style="normal" font-weight="normal" text-decoration="none" x="1261" y="305.5">-speed: double</text></g></g><g transform="translate(-342,-22) scale(1,1)"><g><path fill="none" stroke="none"/><text fill="#000000" stroke="none" font-family="Arial" font-size="13px" font-style="normal" font-weight="normal" text-decoration="none" x="1261" y="320.5">-avaBuildings: int</text></g></g><g transform="translate(-342,-22) scale(1,1)"><g><path fill="none" stroke="none"/><text fill="#000000" stroke="none" font-family="Arial" font-size="13px" font-style="normal" font-weight="normal" text-decoration="none" x="1261" y="335.5">-nowBuildingPassengersLinkedList: LinkedList&lt;Passenger&gt;[*] {collection="ArrayList"}</text></g></g><g transform="translate(-342,-22) scale(1,1)"><g><path fill="none" stroke="none"/><text fill="#000000" stroke="none" font-family="Arial" font-size="13px" font-style="normal" font-weight="normal" text-decoration="none" x="1261" y="350.5">-openFlag: boolean = false</text></g></g><g transform="translate(-342,-22) scale(1,1)"><g><path fill="none" stroke="none"/><text fill="#000000" stroke="none" font-family="Arial" font-size="13px" font-style="normal" font-weight="normal" text-decoration="none" x="1261" y="365.5">-openTag: boolean = false</text></g></g><g transform="translate(-342,-22) scale(1,1)"><g><path fill="none" stroke="none"/><text fill="#000000" stroke="none" font-family="Arial" font-size="13px" font-style="normal" font-weight="normal" text-decoration="none" x="1261" y="380.5">-needSleep400: boolean = false</text></g></g><g transform="translate(-342,-22) scale(1,1)"><g><path fill="none" stroke="none"/><text fill="#000000" stroke="none" font-family="Arial" font-size="13px" font-style="normal" font-weight="normal" text-decoration="none" x="1261" y="403.5">+isFull(): boolean</text></g></g><g transform="translate(-342,-22) scale(1,1)"><g><path fill="none" stroke="none"/><text fill="#000000" stroke="none" font-family="Arial" font-size="13px" font-style="normal" font-weight="normal" text-decoration="none" x="1261" y="418.5">+addPassengerLinkedList(linkedList: Passenger[*]): void</text></g></g><g transform="translate(-342,-22) scale(1,1)"><g><path fill="none" stroke="none"/><text fill="#000000" stroke="none" font-family="Arial" font-size="13px" font-style="normal" font-weight="normal" text-decoration="none" x="1261" y="433.5">+removePassengerLinkedList(linkedList: Passenger[*]): void</text></g></g><g transform="translate(-342,-22) scale(1,1)"><g><path fill="none" stroke="none"/><text fill="#000000" stroke="none" font-family="Arial" font-size="13px" font-style="normal" font-weight="normal" text-decoration="none" x="1261" y="448.5">+getAvaBuildings(): int</text></g></g><g transform="translate(-342,-22) scale(1,1)"><g><path fill="none" stroke="none"/><text fill="#000000" stroke="none" font-family="Arial" font-size="13px" font-style="normal" font-weight="normal" text-decoration="none" x="1261" y="463.5">+getFloor(): int</text></g></g><g transform="translate(-342,-22) scale(1,1)"><g><path fill="none" stroke="none"/><text fill="#000000" stroke="none" font-family="Arial" font-size="13px" font-style="normal" font-weight="normal" text-decoration="none" x="1261" y="478.5">+arrive(): void</text></g></g><g transform="translate(-342,-22) scale(1,1)"><g><path fill="none" stroke="none"/><text fill="#000000" stroke="none" font-family="Arial" font-size="13px" font-style="normal" font-weight="normal" text-decoration="none" x="1261" y="493.5">+open(): void</text></g></g><g transform="translate(-342,-22) scale(1,1)"><g><path fill="none" stroke="none"/><text fill="#000000" stroke="none" font-family="Arial" font-size="13px" font-style="normal" font-weight="normal" text-decoration="none" x="1261" y="508.5">-out(): void</text></g></g><g transform="translate(-342,-22) scale(1,1)"><g><path fill="none" stroke="none"/><text fill="#000000" stroke="none" font-family="Arial" font-size="13px" font-style="normal" font-weight="normal" text-decoration="none" x="1261" y="523.5">+in(linkedList: Passenger[*]): void</text></g></g><g transform="translate(-342,-22) scale(1,1)"><g><path fill="none" stroke="none"/><text fill="#000000" stroke="none" font-family="Arial" font-size="13px" font-style="normal" font-weight="normal" text-decoration="none" x="1261" y="538.5">+close(): void</text></g></g><g transform="translate(-342,-22) scale(1,1)"><g><path fill="none" stroke="none"/><text fill="#000000" stroke="none" font-family="Arial" font-size="13px" font-style="normal" font-weight="normal" text-decoration="none" x="1261" y="553.5">+getIn(): void</text></g></g><g transform="translate(-342,-22) scale(1,1)"><g><path fill="none" stroke="none"/><text fill="#000000" stroke="none" font-family="Arial" font-size="13px" font-style="normal" font-weight="normal" text-decoration="none" x="1261" y="568.5">+sleep200(): void</text></g></g><g transform="translate(-342,-22) scale(1,1)"><g><path fill="none" stroke="none"/><text fill="#000000" stroke="none" font-family="Arial" font-size="13px" font-style="normal" font-weight="normal" text-decoration="none" x="1261" y="583.5">+sleep400(): void</text></g></g><g transform="translate(-342,-22) scale(1,1)"><g><path fill="none" stroke="none"/><text fill="#000000" stroke="none" font-family="Arial" font-size="13px" font-style="normal" font-weight="normal" text-decoration="none" x="1261" y="598.5">+allIn(): void</text></g></g><g transform="translate(-342,-22) scale(1,1)"><g><path fill="none" stroke="none"/><text fill="#000000" stroke="none" font-family="Arial" font-size="13px" font-style="normal" font-weight="normal" text-decoration="none" x="1261" y="613.5">+synInBef(): void</text></g></g><g transform="translate(-342,-22) scale(1,1)"><g><path fill="none" stroke="none"/><text fill="#000000" stroke="none" font-family="Arial" font-size="13px" font-style="normal" font-weight="normal" text-decoration="none" x="1261" y="628.5">+synInAft(): void</text></g></g><g transform="translate(-342,-22) scale(1,1)"><g><path fill="none" stroke="none"/><text fill="#000000" stroke="none" font-family="Arial" font-size="13px" font-style="normal" font-weight="normal" text-decoration="none" x="1261" y="643.5">+move(): void</text></g></g><g transform="translate(-342,-22) scale(1,1)"><g><path fill="none" stroke="none"/><text fill="#000000" stroke="none" font-family="Arial" font-size="13px" font-style="normal" font-weight="normal" text-decoration="none" x="1261" y="658.5">+sleepMove(): void</text></g></g><g transform="translate(-342,-22) scale(1,1)"><g><path fill="none" stroke="none"/><text fill="#000000" stroke="none" font-family="Arial" font-size="13px" font-style="normal" font-weight="normal" text-decoration="none" x="1261" y="673.5">+getTargetBuilding(): void</text></g></g><g transform="translate(-342,-22) scale(1,1)"><g><path fill="none" stroke="none"/><text fill="#000000" stroke="none" font-family="Arial" font-size="13px" font-style="normal" font-weight="normal" text-decoration="none" x="1261" y="688.5">+run(): void</text></g></g><g transform="translate(-342,-22) scale(1,1)"><rect fill="#C0C0C0" stroke="none" x="359" y="135" width="380.794921875" height="280" opacity="0.2"/></g><g transform="translate(-342,-22) scale(1,1)"><rect fill="#ffffff" stroke="none" x="352" y="128" width="380.794921875" height="280"/></g><g transform="translate(-342,-22) scale(1,1)"><path fill="none" stroke="#000000" d="M 352 128 L 732.794921875 128 L 732.794921875 408 L 352 408 L 352 128 Z Z" stroke-miterlimit="10"/></g><g transform="translate(-342,-22) scale(1,1)"><path fill="none" stroke="#000000" d="M 352 168 L 732.794921875 168" stroke-miterlimit="10"/></g><g transform="translate(-342,-22) scale(1,1)"><path fill="none" stroke="#000000" d="M 352 178 L 732.794921875 178" stroke-miterlimit="10"/></g><g transform="translate(-342,-22) scale(1,1)"><g><path fill="none" stroke="none"/><text fill="#000000" stroke="none" font-family="Arial" font-size="13px" font-style="normal" font-weight="bold" text-decoration="none" x="507.345703125" y="147.5">InputThread</text></g></g><g transform="translate(-342,-22) scale(1,1)"><g><path fill="none" stroke="none"/><text fill="#000000" stroke="none" font-family="Arial" font-size="13px" font-style="normal" font-weight="normal" text-decoration="none" x="485.328857421875" y="162.5">(from JavaReverse)</text></g></g><g transform="translate(-342,-22) scale(1,1)"><g><path fill="none" stroke="none"/><text fill="#000000" stroke="none" font-family="Arial" font-size="13px" font-style="normal" font-weight="normal" text-decoration="none" x="357" y="197.5">+setEnd(): void</text></g></g><g transform="translate(-342,-22) scale(1,1)"><g><path fill="none" stroke="none"/><text fill="#000000" stroke="none" font-family="Arial" font-size="13px" font-style="normal" font-weight="normal" text-decoration="none" x="357" y="212.5">+calcPassengerLinkedList(passenger: Passenger): Passenger[*]</text></g></g><g transform="translate(-342,-22) scale(1,1)"><g><path fill="none" stroke="none"/><text fill="#000000" stroke="none" font-family="Arial" font-size="13px" font-style="normal" font-weight="normal" text-decoration="none" x="357" y="227.5">+handlePerRequest(request: Request): void</text></g></g><g transform="translate(-342,-22) scale(1,1)"><g><path fill="none" stroke="none"/><text fill="#000000" stroke="none" font-family="Arial" font-size="13px" font-style="normal" font-weight="normal" text-decoration="none" x="357" y="242.5">+handleEleRequest(request: Request): void</text></g></g><g transform="translate(-342,-22) scale(1,1)"><g><path fill="none" stroke="none"/><text fill="#000000" stroke="none" font-family="Arial" font-size="13px" font-style="normal" font-weight="normal" text-decoration="none" x="357" y="257.5">+run(): void</text></g></g><g transform="translate(-342,-22) scale(1,1)"><rect fill="#C0C0C0" stroke="none" x="359" y="39" width="1408" height="72" opacity="0.2"/></g><g transform="translate(-342,-22) scale(1,1)"><rect fill="#ffffff" stroke="none" x="352" y="32" width="1408" height="72"/></g><g transform="translate(-342,-22) scale(1,1)"><path fill="none" stroke="#000000" d="M 352 32 L 1760 32 L 1760 104 L 352 104 L 352 32 Z Z" stroke-miterlimit="10"/></g><g transform="translate(-342,-22) scale(1,1)"><path fill="none" stroke="#000000" d="M 352 72 L 1760 72" stroke-miterlimit="10"/></g><g transform="translate(-342,-22) scale(1,1)"><path fill="none" stroke="#000000" d="M 352 82 L 1760 82" stroke-miterlimit="10"/></g><g transform="translate(-342,-22) scale(1,1)"><g><path fill="none" stroke="none"/><text fill="#000000" stroke="none" font-family="Arial" font-size="13px" font-style="normal" font-weight="bold" text-decoration="none" x="1025.658203125" y="51.5">MainClass</text></g></g><g transform="translate(-342,-22) scale(1,1)"><g><path fill="none" stroke="none"/><text fill="#000000" stroke="none" font-family="Arial" font-size="13px" font-style="normal" font-weight="normal" text-decoration="none" x="998.931396484375" y="66.5">(from JavaReverse)</text></g></g><g transform="translate(-342,-22) scale(1,1)"><g><path fill="none" stroke="none"/><text fill="#000000" stroke="none" font-family="Arial" font-size="13px" font-style="normal" font-weight="normal" text-decoration="none" x="357" y="99.5">+main(args: String[*]): void</text><path fill="none" stroke="#000000" d="M 357 99.5 L 511.25439453125 99.5" stroke-miterlimit="10"/></g></g><g transform="translate(-342,-22) scale(1,1)"><rect fill="#C0C0C0" stroke="none" x="1495" y="719" width="272" height="376" opacity="0.2"/></g><g transform="translate(-342,-22) scale(1,1)"><rect fill="#ffffff" stroke="none" x="1488" y="712" width="272" height="376"/></g><g transform="translate(-342,-22) scale(1,1)"><path fill="none" stroke="#000000" d="M 1488 712 L 1760 712 L 1760 1088 L 1488 1088 L 1488 712 Z Z" stroke-miterlimit="10"/></g><g transform="translate(-342,-22) scale(1,1)"><path fill="none" stroke="#000000" d="M 1488 752 L 1760 752" stroke-miterlimit="10"/></g><g transform="translate(-342,-22) scale(1,1)"><path fill="none" stroke="#000000" d="M 1488 762 L 1760 762" stroke-miterlimit="10"/></g><g transform="translate(-342,-22) scale(1,1)"><g><path fill="none" stroke="none"/><text fill="#000000" stroke="none" font-family="Arial" font-size="13px" font-style="normal" font-weight="bold" text-decoration="none" x="1583.892333984375" y="731.5">OutputThread</text></g></g><g transform="translate(-342,-22) scale(1,1)"><g><path fill="none" stroke="none"/><text fill="#000000" stroke="none" font-family="Arial" font-size="13px" font-style="normal" font-weight="normal" text-decoration="none" x="1566.931396484375" y="746.5">(from JavaReverse)</text></g></g><g transform="translate(-342,-22) scale(1,1)"><g><path fill="none" stroke="none"/><text fill="#000000" stroke="none" font-family="Arial" font-size="13px" font-style="normal" font-weight="normal" text-decoration="none" x="1493" y="781.5">+getInstance(): OutputThread</text><path fill="none" stroke="#000000" d="M 1493 781.5 L 1663.904296875 781.5" stroke-miterlimit="10"/></g></g><g transform="translate(-342,-22) scale(1,1)"><g><path fill="none" stroke="none"/><text fill="#000000" stroke="none" font-family="Arial" font-size="13px" font-style="normal" font-weight="normal" text-decoration="none" x="1493" y="796.5">+println(msg: String): void</text></g></g><g transform="translate(-342,-22) scale(1,1)"><rect fill="#C0C0C0" stroke="none" x="1295" y="719" width="184" height="384" opacity="0.2"/></g><g transform="translate(-342,-22) scale(1,1)"><rect fill="#ffffff" stroke="none" x="1288" y="712" width="184" height="384"/></g><g transform="translate(-342,-22) scale(1,1)"><path fill="none" stroke="#000000" d="M 1288 712 L 1472 712 L 1472 1096 L 1288 1096 L 1288 712 Z Z" stroke-miterlimit="10"/></g><g transform="translate(-342,-22) scale(1,1)"><path fill="none" stroke="#000000" d="M 1288 752 L 1472 752" stroke-miterlimit="10"/></g><g transform="translate(-342,-22) scale(1,1)"><path fill="none" stroke="#000000" d="M 1288 835 L 1472 835" stroke-miterlimit="10"/></g><g transform="translate(-342,-22) scale(1,1)"><g><path fill="none" stroke="none"/><text fill="#000000" stroke="none" font-family="Arial" font-size="13px" font-style="normal" font-weight="bold" text-decoration="none" x="1348.925048828125" y="731.5">Passenger</text></g></g><g transform="translate(-342,-22) scale(1,1)"><g><path fill="none" stroke="none"/><text fill="#000000" stroke="none" font-family="Arial" font-size="13px" font-style="normal" font-weight="normal" text-decoration="none" x="1322.931396484375" y="746.5">(from JavaReverse)</text></g></g><g transform="translate(-342,-22) scale(1,1)"><g><path fill="none" stroke="none"/><text fill="#000000" stroke="none" font-family="Arial" font-size="13px" font-style="normal" font-weight="normal" text-decoration="none" x="1293" y="769.5">-id: int</text></g></g><g transform="translate(-342,-22) scale(1,1)"><g><path fill="none" stroke="none"/><text fill="#000000" stroke="none" font-family="Arial" font-size="13px" font-style="normal" font-weight="normal" text-decoration="none" x="1293" y="784.5">-fromBuilding: int</text></g></g><g transform="translate(-342,-22) scale(1,1)"><g><path fill="none" stroke="none"/><text fill="#000000" stroke="none" font-family="Arial" font-size="13px" font-style="normal" font-weight="normal" text-decoration="none" x="1293" y="799.5">-fromFloor: int</text></g></g><g transform="translate(-342,-22) scale(1,1)"><g><path fill="none" stroke="none"/><text fill="#000000" stroke="none" font-family="Arial" font-size="13px" font-style="normal" font-weight="normal" text-decoration="none" x="1293" y="814.5">-toBuilding: int</text></g></g><g transform="translate(-342,-22) scale(1,1)"><g><path fill="none" stroke="none"/><text fill="#000000" stroke="none" font-family="Arial" font-size="13px" font-style="normal" font-weight="normal" text-decoration="none" x="1293" y="829.5">-toFloor: int</text></g></g><g transform="translate(-342,-22) scale(1,1)"><g><path fill="none" stroke="none"/><text fill="#000000" stroke="none" font-family="Arial" font-size="13px" font-style="normal" font-weight="normal" text-decoration="none" x="1293" y="854.5">+getId(): int</text></g></g><g transform="translate(-342,-22) scale(1,1)"><g><path fill="none" stroke="none"/><text fill="#000000" stroke="none" font-family="Arial" font-size="13px" font-style="normal" font-weight="normal" text-decoration="none" x="1293" y="869.5">+getFromBuilding(): int</text></g></g><g transform="translate(-342,-22) scale(1,1)"><g><path fill="none" stroke="none"/><text fill="#000000" stroke="none" font-family="Arial" font-size="13px" font-style="normal" font-weight="normal" text-decoration="none" x="1293" y="884.5">+getFromFloor(): int</text></g></g><g transform="translate(-342,-22) scale(1,1)"><g><path fill="none" stroke="none"/><text fill="#000000" stroke="none" font-family="Arial" font-size="13px" font-style="normal" font-weight="normal" text-decoration="none" x="1293" y="899.5">+getToBuilding(): int</text></g></g><g transform="translate(-342,-22) scale(1,1)"><g><path fill="none" stroke="none"/><text fill="#000000" stroke="none" font-family="Arial" font-size="13px" font-style="normal" font-weight="normal" text-decoration="none" x="1293" y="914.5">+getToFloor(): int</text></g></g><g transform="translate(-342,-22) scale(1,1)"><rect fill="#C0C0C0" stroke="none" x="983" y="719" width="289.71240234375" height="384" opacity="0.2"/></g><g transform="translate(-342,-22) scale(1,1)"><rect fill="#ffffff" stroke="none" x="976" y="712" width="289.71240234375" height="384"/></g><g transform="translate(-342,-22) scale(1,1)"><path fill="none" stroke="#000000" d="M 976 712 L 1265.71240234375 712 L 1265.71240234375 1096 L 976 1096 L 976 712 Z Z" stroke-miterlimit="10"/></g><g transform="translate(-342,-22) scale(1,1)"><path fill="none" stroke="#000000" d="M 976 752 L 1265.71240234375 752" stroke-miterlimit="10"/></g><g transform="translate(-342,-22) scale(1,1)"><path fill="none" stroke="#000000" d="M 976 762 L 1265.71240234375 762" stroke-miterlimit="10"/></g><g transform="translate(-342,-22) scale(1,1)"><g><path fill="none" stroke="none"/><text fill="#000000" stroke="none" font-family="Arial" font-size="13px" font-style="normal" font-weight="bold" text-decoration="none" x="1081.84033203125" y="731.5">RowDirJudge</text></g></g><g transform="translate(-342,-22) scale(1,1)"><g><path fill="none" stroke="none"/><text fill="#000000" stroke="none" font-family="Arial" font-size="13px" font-style="normal" font-weight="normal" text-decoration="none" x="1063.78759765625" y="746.5">(from JavaReverse)</text></g></g><g transform="translate(-342,-22) scale(1,1)"><g><path fill="none" stroke="none"/><text fill="#000000" stroke="none" font-family="Arial" font-size="13px" font-style="normal" font-weight="normal" text-decoration="none" x="981" y="779.5">«constructor»-RowDirJudge()</text></g></g><g transform="translate(-342,-22) scale(1,1)"><g><path fill="none" stroke="none"/><text fill="#000000" stroke="none" font-family="Arial" font-size="13px" font-style="normal" font-weight="normal" text-decoration="none" x="981" y="794.5">+getInstance(): RowDirJudge</text><path fill="none" stroke="#000000" d="M 981 794.5 L 1149.720703125 794.5" stroke-miterlimit="10"/></g></g><g transform="translate(-342,-22) scale(1,1)"><g><path fill="none" stroke="none"/><text fill="#000000" stroke="none" font-family="Arial" font-size="13px" font-style="normal" font-weight="normal" text-decoration="none" x="981" y="809.5">+judgeSmaeDir(dir: int, from: int, to: int): boolean</text></g></g><g transform="translate(-342,-22) scale(1,1)"><g><path fill="none" stroke="none"/><text fill="#000000" stroke="none" font-family="Arial" font-size="13px" font-style="normal" font-weight="normal" text-decoration="none" x="981" y="824.5">+judgeDir(from: int, to: int): int</text></g></g><g transform="translate(-342,-22) scale(1,1)"><rect fill="#C0C0C0" stroke="none" x="359" y="719" width="592" height="385" opacity="0.2"/></g><g transform="translate(-342,-22) scale(1,1)"><rect fill="#ffffff" stroke="none" x="352" y="712" width="592" height="385"/></g><g transform="translate(-342,-22) scale(1,1)"><path fill="none" stroke="#000000" d="M 352 712 L 944 712 L 944 1097 L 352 1097 L 352 712 Z Z" stroke-miterlimit="10"/></g><g transform="translate(-342,-22) scale(1,1)"><path fill="none" stroke="#000000" d="M 352 752 L 944 752" stroke-miterlimit="10"/></g><g transform="translate(-342,-22) scale(1,1)"><path fill="none" stroke="#000000" d="M 352 805 L 944 805" stroke-miterlimit="10"/></g><g transform="translate(-342,-22) scale(1,1)"><g><path fill="none" stroke="none"/><text fill="#000000" stroke="none" font-family="Arial" font-size="13px" font-style="normal" font-weight="bold" text-decoration="none" x="619.7021484375" y="731.5">WaitTable</text></g></g><g transform="translate(-342,-22) scale(1,1)"><g><path fill="none" stroke="none"/><text fill="#000000" stroke="none" font-family="Arial" font-size="13px" font-style="normal" font-weight="normal" text-decoration="none" x="590.931396484375" y="746.5">(from JavaReverse)</text></g></g><g transform="translate(-342,-22) scale(1,1)"><g><path fill="none" stroke="none"/><text fill="#000000" stroke="none" font-family="Arial" font-size="13px" font-style="normal" font-weight="normal" text-decoration="none" x="357" y="769.5">-end: boolean</text></g></g><g transform="translate(-342,-22) scale(1,1)"><g><path fill="none" stroke="none"/><text fill="#000000" stroke="none" font-family="Arial" font-size="13px" font-style="normal" font-weight="normal" text-decoration="none" x="357" y="784.5">-buildingOrFloor: int</text></g></g><g transform="translate(-342,-22) scale(1,1)"><g><path fill="none" stroke="none"/><text fill="#000000" stroke="none" font-family="Arial" font-size="13px" font-style="normal" font-weight="normal" text-decoration="none" x="357" y="799.5">-passengerLinkedListArrayList: LinkedList&lt;Passenger&gt;[*] {collection="ArrayList"}</text></g></g><g transform="translate(-342,-22) scale(1,1)"><g><path fill="none" stroke="none"/><text fill="#000000" stroke="none" font-family="Arial" font-size="13px" font-style="normal" font-weight="normal" text-decoration="none" x="357" y="824.5">+addElevatorCol(elevatorCol: ElevatorCol): void</text></g></g><g transform="translate(-342,-22) scale(1,1)"><g><path fill="none" stroke="none"/><text fill="#000000" stroke="none" font-family="Arial" font-size="13px" font-style="normal" font-weight="normal" text-decoration="none" x="357" y="839.5">+addElevatorRow(elevatorRow: ElevatorRow): void</text></g></g><g transform="translate(-342,-22) scale(1,1)"><g><path fill="none" stroke="none"/><text fill="#000000" stroke="none" font-family="Arial" font-size="13px" font-style="normal" font-weight="normal" text-decoration="none" x="357" y="854.5">+getElevatorCols(): ElevatorCol[*]</text></g></g><g transform="translate(-342,-22) scale(1,1)"><g><path fill="none" stroke="none"/><text fill="#000000" stroke="none" font-family="Arial" font-size="13px" font-style="normal" font-weight="normal" text-decoration="none" x="357" y="869.5">+getElevatorRows(): ElevatorRow[*]</text></g></g><g transform="translate(-342,-22) scale(1,1)"><g><path fill="none" stroke="none"/><text fill="#000000" stroke="none" font-family="Arial" font-size="13px" font-style="normal" font-weight="normal" text-decoration="none" x="357" y="884.5">+getElevatorColSize(): int</text></g></g><g transform="translate(-342,-22) scale(1,1)"><g><path fill="none" stroke="none"/><text fill="#000000" stroke="none" font-family="Arial" font-size="13px" font-style="normal" font-weight="normal" text-decoration="none" x="357" y="899.5">+getElevatorRowSize(): int</text></g></g><g transform="translate(-342,-22) scale(1,1)"><g><path fill="none" stroke="none"/><text fill="#000000" stroke="none" font-family="Arial" font-size="13px" font-style="normal" font-weight="normal" text-decoration="none" x="357" y="914.5">+getBuildingOrFloor(): int</text></g></g><g transform="translate(-342,-22) scale(1,1)"><g><path fill="none" stroke="none"/><text fill="#000000" stroke="none" font-family="Arial" font-size="13px" font-style="normal" font-weight="normal" text-decoration="none" x="357" y="929.5">+putPassengerLinkedList(linkedList: Passenger[*]): void</text></g></g><g transform="translate(-342,-22) scale(1,1)"><g><path fill="none" stroke="none"/><text fill="#000000" stroke="none" font-family="Arial" font-size="13px" font-style="normal" font-weight="normal" text-decoration="none" x="357" y="944.5">+hasPassengerLinkedList(linkedList: Passenger[*]): boolean</text></g></g><g transform="translate(-342,-22) scale(1,1)"><g><path fill="none" stroke="none"/><text fill="#000000" stroke="none" font-family="Arial" font-size="13px" font-style="normal" font-weight="normal" text-decoration="none" x="357" y="959.5">+getPassengerLinkedList(linkedList: Passenger[*]): void</text></g></g><g transform="translate(-342,-22) scale(1,1)"><g><path fill="none" stroke="none"/><text fill="#000000" stroke="none" font-family="Arial" font-size="13px" font-style="normal" font-weight="normal" text-decoration="none" x="357" y="974.5">+setEnd(): void</text></g></g><g transform="translate(-342,-22) scale(1,1)"><g><path fill="none" stroke="none"/><text fill="#000000" stroke="none" font-family="Arial" font-size="13px" font-style="normal" font-weight="normal" text-decoration="none" x="357" y="989.5">+isEnd(): boolean</text></g></g><g transform="translate(-342,-22) scale(1,1)"><g><path fill="none" stroke="none"/><text fill="#000000" stroke="none" font-family="Arial" font-size="13px" font-style="normal" font-weight="normal" text-decoration="none" x="357" y="1004.5">+isEmpty(): boolean</text></g></g><g transform="translate(-342,-22) scale(1,1)"><g><path fill="none" stroke="none"/><text fill="#000000" stroke="none" font-family="Arial" font-size="13px" font-style="normal" font-weight="normal" text-decoration="none" x="357" y="1019.5">+calcNext(nowFloor: int, dir: int): int</text></g></g><g transform="translate(-342,-22) scale(1,1)"><g><path fill="none" stroke="none"/><text fill="#000000" stroke="none" font-family="Arial" font-size="13px" font-style="normal" font-weight="normal" text-decoration="none" x="357" y="1034.5">+calcNextBuilding(nowBuilding: int, dir: int): int</text></g></g><g transform="translate(-342,-22) scale(1,1)"><g><path fill="none" stroke="none"/><text fill="#000000" stroke="none" font-family="Arial" font-size="13px" font-style="normal" font-weight="normal" text-decoration="none" x="357" y="1049.5">+getFloorPassengersLinkedList(nowFloor: int): LinkedList&lt;Passenger&gt;[*]</text></g></g><g transform="translate(-342,-22) scale(1,1)"><g><path fill="none" stroke="none"/><text fill="#000000" stroke="none" font-family="Arial" font-size="13px" font-style="normal" font-weight="normal" text-decoration="none" x="357" y="1064.5">+getBuildingPassengersLinkedList(nowBuilding: int): LinkedList&lt;Passenger&gt;[*]</text></g></g></g></svg>