<?xml version="1.0" encoding="UTF-8" standalone="no"?><svg xmlns="http://www.w3.org/2000/svg" xmlns:xlink="http://www.w3.org/1999/xlink" contentStyleType="text/css" height="593px" preserveAspectRatio="none" style="width:688px;height:593px;background:#FFFFFF;" version="1.1" viewBox="0 0 688 593" width="688px" zoomAndPan="magnify"><defs/><g><line style="stroke:#181818;stroke-width:0.5;stroke-dasharray:5.0,5.0;" x1="44" x2="44" y1="39.1201" y2="555.6816"/><line style="stroke:#181818;stroke-width:0.5;stroke-dasharray:5.0,5.0;" x1="157" x2="157" y1="39.1201" y2="555.6816"/><line style="stroke:#181818;stroke-width:0.5;stroke-dasharray:5.0,5.0;" x1="296.5" x2="296.5" y1="39.1201" y2="555.6816"/><line style="stroke:#181818;stroke-width:0.5;stroke-dasharray:5.0,5.0;" x1="416" x2="416" y1="39.1201" y2="555.6816"/><line style="stroke:#181818;stroke-width:0.5;stroke-dasharray:5.0,5.0;" x1="552" x2="552" y1="39.1201" y2="555.6816"/><rect fill="#E2E2F0" height="33.1201" rx="2.5" ry="2.5" style="stroke:#181818;stroke-width:0.5;" width="79" x="5" y="5"/><text fill="#000000" font-family="sans-serif" font-size="14" lengthAdjust="spacing" textLength="65" x="12" y="28.0439">MainClass</text><rect fill="#E2E2F0" height="33.1201" rx="2.5" ry="2.5" style="stroke:#181818;stroke-width:0.5;" width="79" x="5" y="554.6816"/><text fill="#000000" font-family="sans-serif" font-size="14" lengthAdjust="spacing" textLength="65" x="12" y="577.7256">MainClass</text><rect fill="#E2E2F0" height="33.1201" rx="2.5" ry="2.5" style="stroke:#181818;stroke-width:0.5;" width="91" x="112" y="5"/><text fill="#000000" font-family="sans-serif" font-size="14" lengthAdjust="spacing" textLength="77" x="119" y="28.0439">InputThread</text><rect fill="#E2E2F0" height="33.1201" rx="2.5" ry="2.5" style="stroke:#181818;stroke-width:0.5;" width="91" x="112" y="554.6816"/><text fill="#000000" font-family="sans-serif" font-size="14" lengthAdjust="spacing" textLength="77" x="119" y="577.7256">InputThread</text><rect fill="#E2E2F0" height="33.1201" rx="2.5" ry="2.5" style="stroke:#181818;stroke-width:0.5;" width="78" x="257.5" y="5"/><text fill="#000000" font-family="sans-serif" font-size="14" lengthAdjust="spacing" textLength="64" x="264.5" y="28.0439">WaitTable</text><rect fill="#E2E2F0" height="33.1201" rx="2.5" ry="2.5" style="stroke:#181818;stroke-width:0.5;" width="78" x="257.5" y="554.6816"/><text fill="#000000" font-family="sans-serif" font-size="14" lengthAdjust="spacing" textLength="64" x="264.5" y="577.7256">WaitTable</text><rect fill="#E2E2F0" height="33.1201" rx="2.5" ry="2.5" style="stroke:#181818;stroke-width:0.5;" width="87" x="373" y="5"/><text fill="#000000" font-family="sans-serif" font-size="14" lengthAdjust="spacing" textLength="73" x="380" y="28.0439">ElevatorCol</text><rect fill="#E2E2F0" height="33.1201" rx="2.5" ry="2.5" style="stroke:#181818;stroke-width:0.5;" width="87" x="373" y="554.6816"/><text fill="#000000" font-family="sans-serif" font-size="14" lengthAdjust="spacing" textLength="73" x="380" y="577.7256">ElevatorCol</text><rect fill="#E2E2F0" height="33.1201" rx="2.5" ry="2.5" style="stroke:#181818;stroke-width:0.5;" width="93" x="506" y="5"/><text fill="#000000" font-family="sans-serif" font-size="14" lengthAdjust="spacing" textLength="79" x="513" y="28.0439">ElevatorRow</text><rect fill="#E2E2F0" height="33.1201" rx="2.5" ry="2.5" style="stroke:#181818;stroke-width:0.5;" width="93" x="506" y="554.6816"/><text fill="#000000" font-family="sans-serif" font-size="14" lengthAdjust="spacing" textLength="79" x="513" y="577.7256">ElevatorRow</text><polygon fill="#181818" points="145.5,68.8745,155.5,72.8745,145.5,76.8745,149.5,72.8745" style="stroke:#181818;stroke-width:1.0;"/><line style="stroke:#181818;stroke-width:1.0;stroke-dasharray:2.0,2.0;" x1="44.5" x2="151.5" y1="72.8745" y2="72.8745"/><text fill="#000000" font-family="sans-serif" font-size="13" font-weight="bold" lengthAdjust="spacing" textLength="7" x="51.5" y="68.0181">1</text><text fill="#000000" font-family="sans-serif" font-size="13" lengthAdjust="spacing" textLength="78" x="62.5" y="68.0181">启动输入线程</text><polygon fill="#181818" points="284.5,100.6289,294.5,104.6289,284.5,108.6289,288.5,104.6289" style="stroke:#181818;stroke-width:1.0;"/><line style="stroke:#181818;stroke-width:1.0;stroke-dasharray:2.0,2.0;" x1="44.5" x2="290.5" y1="104.6289" y2="104.6289"/><text fill="#000000" font-family="sans-serif" font-size="13" font-weight="bold" lengthAdjust="spacing" textLength="7" x="51.5" y="99.7725">2</text><text fill="#000000" font-family="sans-serif" font-size="13" lengthAdjust="spacing" textLength="65" x="62.5" y="99.7725">构造候乘表</text><polygon fill="#181818" points="404.5,132.3833,414.5,136.3833,404.5,140.3833,408.5,136.3833" style="stroke:#181818;stroke-width:1.0;"/><line style="stroke:#181818;stroke-width:1.0;stroke-dasharray:2.0,2.0;" x1="44.5" x2="410.5" y1="136.3833" y2="136.3833"/><text fill="#000000" font-family="sans-serif" font-size="13" font-weight="bold" lengthAdjust="spacing" textLength="7" x="51.5" y="131.5269">3</text><text fill="#000000" font-family="sans-serif" font-size="13" lengthAdjust="spacing" textLength="130" x="62.5" y="131.5269">启动初始纵向电梯线程</text><polygon fill="#181818" points="284.5,164.1377,294.5,168.1377,284.5,172.1377,288.5,168.1377" style="stroke:#181818;stroke-width:1.0;"/><line style="stroke:#181818;stroke-width:1.0;" x1="157.5" x2="290.5" y1="168.1377" y2="168.1377"/><text fill="#000000" font-family="sans-serif" font-size="13" font-weight="bold" lengthAdjust="spacing" textLength="7" x="164.5" y="163.2813">4</text><text fill="#000000" font-family="sans-serif" font-size="13" lengthAdjust="spacing" textLength="104" x="175.5" y="163.2813">新请求加入候乘表</text><polygon fill="#181818" points="404.5,195.8921,414.5,199.8921,404.5,203.8921,408.5,199.8921" style="stroke:#181818;stroke-width:1.0;"/><line style="stroke:#181818;stroke-width:1.0;" x1="296.5" x2="410.5" y1="199.8921" y2="199.8921"/><text fill="#000000" font-family="sans-serif" font-size="13" font-weight="bold" lengthAdjust="spacing" textLength="7" x="303.5" y="195.0356">5</text><text fill="#000000" font-family="sans-serif" font-size="13" lengthAdjust="spacing" textLength="52" x="314.5" y="195.0356">获取请求</text><line style="stroke:#181818;stroke-width:1.0;" x1="416.5" x2="458.5" y1="231.6465" y2="231.6465"/><line style="stroke:#181818;stroke-width:1.0;" x1="458.5" x2="458.5" y1="231.6465" y2="244.6465"/><line style="stroke:#181818;stroke-width:1.0;" x1="417.5" x2="458.5" y1="244.6465" y2="244.6465"/><polygon fill="#181818" points="427.5,240.6465,417.5,244.6465,427.5,248.6465,423.5,244.6465" style="stroke:#181818;stroke-width:1.0;"/><text fill="#000000" font-family="sans-serif" font-size="13" font-weight="bold" lengthAdjust="spacing" textLength="7" x="423.5" y="226.79">6</text><text fill="#000000" font-family="sans-serif" font-size="13" lengthAdjust="spacing" textLength="52" x="434.5" y="226.79">执行请求</text><polygon fill="#181818" points="404.5,272.4009,414.5,276.4009,404.5,280.4009,408.5,276.4009" style="stroke:#181818;stroke-width:1.0;"/><line style="stroke:#181818;stroke-width:1.0;stroke-dasharray:2.0,2.0;" x1="157.5" x2="410.5" y1="276.4009" y2="276.4009"/><text fill="#000000" font-family="sans-serif" font-size="13" font-weight="bold" lengthAdjust="spacing" textLength="7" x="164.5" y="271.5444">7</text><text fill="#000000" font-family="sans-serif" font-size="13" lengthAdjust="spacing" textLength="104" x="175.5" y="271.5444">启动新增纵向电梯</text><polygon fill="#181818" points="540.5,304.1553,550.5,308.1553,540.5,312.1553,544.5,308.1553" style="stroke:#181818;stroke-width:1.0;"/><line style="stroke:#181818;stroke-width:1.0;stroke-dasharray:2.0,2.0;" x1="157.5" x2="546.5" y1="308.1553" y2="308.1553"/><text fill="#000000" font-family="sans-serif" font-size="13" font-weight="bold" lengthAdjust="spacing" textLength="7" x="164.5" y="303.2988">8</text><text fill="#000000" font-family="sans-serif" font-size="13" lengthAdjust="spacing" textLength="104" x="175.5" y="303.2988">启动新增横向电梯</text><polygon fill="#181818" points="540.5,335.9097,550.5,339.9097,540.5,343.9097,544.5,339.9097" style="stroke:#181818;stroke-width:1.0;"/><line style="stroke:#181818;stroke-width:1.0;" x1="296.5" x2="546.5" y1="339.9097" y2="339.9097"/><text fill="#000000" font-family="sans-serif" font-size="13" font-weight="bold" lengthAdjust="spacing" textLength="7" x="303.5" y="335.0532">9</text><text fill="#000000" font-family="sans-serif" font-size="13" lengthAdjust="spacing" textLength="52" x="314.5" y="335.0532">获取请求</text><line style="stroke:#181818;stroke-width:1.0;" x1="552.5" x2="594.5" y1="371.6641" y2="371.6641"/><line style="stroke:#181818;stroke-width:1.0;" x1="594.5" x2="594.5" y1="371.6641" y2="384.6641"/><line style="stroke:#181818;stroke-width:1.0;" x1="553.5" x2="594.5" y1="384.6641" y2="384.6641"/><polygon fill="#181818" points="563.5,380.6641,553.5,384.6641,563.5,388.6641,559.5,384.6641" style="stroke:#181818;stroke-width:1.0;"/><text fill="#000000" font-family="sans-serif" font-size="13" font-weight="bold" lengthAdjust="spacing" textLength="14" x="559.5" y="366.8076">10</text><text fill="#000000" font-family="sans-serif" font-size="13" lengthAdjust="spacing" textLength="52" x="577.5" y="366.8076">执行请求</text><polygon fill="#181818" points="284.5,412.4185,294.5,416.4185,284.5,420.4185,288.5,416.4185" style="stroke:#181818;stroke-width:1.0;"/><line style="stroke:#181818;stroke-width:1.0;" x1="157.5" x2="290.5" y1="416.4185" y2="416.4185"/><text fill="#000000" font-family="sans-serif" font-size="13" font-weight="bold" lengthAdjust="spacing" textLength="14" x="164.5" y="411.562">11</text><text fill="#000000" font-family="sans-serif" font-size="13" lengthAdjust="spacing" textLength="52" x="182.5" y="411.562">结束信号</text><polygon fill="#181818" points="404.5,444.1729,414.5,448.1729,404.5,452.1729,408.5,448.1729" style="stroke:#181818;stroke-width:1.0;"/><line style="stroke:#181818;stroke-width:1.0;" x1="296.5" x2="410.5" y1="448.1729" y2="448.1729"/><text fill="#000000" font-family="sans-serif" font-size="13" font-weight="bold" lengthAdjust="spacing" textLength="14" x="303.5" y="443.3164">12</text><text fill="#000000" font-family="sans-serif" font-size="13" lengthAdjust="spacing" textLength="78" x="321.5" y="443.3164">发出结束信号</text><line style="stroke:#181818;stroke-width:1.0;" x1="416.5" x2="458.5" y1="479.9272" y2="479.9272"/><line style="stroke:#181818;stroke-width:1.0;" x1="458.5" x2="458.5" y1="479.9272" y2="492.9272"/><line style="stroke:#181818;stroke-width:1.0;" x1="417.5" x2="458.5" y1="492.9272" y2="492.9272"/><polygon fill="#181818" points="427.5,488.9272,417.5,492.9272,427.5,496.9272,423.5,492.9272" style="stroke:#181818;stroke-width:1.0;"/><text fill="#000000" font-family="sans-serif" font-size="13" font-weight="bold" lengthAdjust="spacing" textLength="14" x="423.5" y="475.0708">13</text><text fill="#000000" font-family="sans-serif" font-size="13" lengthAdjust="spacing" textLength="104" x="441.5" y="475.0708">电梯线程自行结束</text><line style="stroke:#181818;stroke-width:1.0;" x1="552.5" x2="594.5" y1="524.6816" y2="524.6816"/><line style="stroke:#181818;stroke-width:1.0;" x1="594.5" x2="594.5" y1="524.6816" y2="537.6816"/><line style="stroke:#181818;stroke-width:1.0;" x1="553.5" x2="594.5" y1="537.6816" y2="537.6816"/><polygon fill="#181818" points="563.5,533.6816,553.5,537.6816,563.5,541.6816,559.5,537.6816" style="stroke:#181818;stroke-width:1.0;"/><text fill="#000000" font-family="sans-serif" font-size="13" font-weight="bold" lengthAdjust="spacing" textLength="14" x="559.5" y="519.8252">14</text><text fill="#000000" font-family="sans-serif" font-size="13" lengthAdjust="spacing" textLength="104" x="577.5" y="519.8252">电梯线程自行结束</text><!--MD5=[7ffe0fbc6701914b2f1cfc6896e383a5]
@startuml
'https://plantuml.com/sequence-diagram

autonumber

MainClass - -> InputThread: 启动输入线程
MainClass - -> WaitTable: 构造候乘表
MainClass - -> ElevatorCol: 启动初始纵向电梯线程
InputThread -> WaitTable: 新请求加入候乘表
WaitTable -> ElevatorCol: 获取请求
ElevatorCol -> ElevatorCol: 执行请求
InputThread - -> ElevatorCol: 启动新增纵向电梯
InputThread - -> ElevatorRow:启动新增横向电梯
WaitTable -> ElevatorRow: 获取请求
ElevatorRow -> ElevatorRow: 执行请求
InputThread ->WaitTable:结束信号
WaitTable ->ElevatorCol:发出结束信号

ElevatorCol -> ElevatorCol: 电梯线程自行结束
ElevatorRow -> ElevatorRow: 电梯线程自行结束
@enduml

@startuml

autonumber

MainClass - -> InputThread: 启动输入线程
MainClass - -> WaitTable: 构造候乘表
MainClass - -> ElevatorCol: 启动初始纵向电梯线程
InputThread -> WaitTable: 新请求加入候乘表
WaitTable -> ElevatorCol: 获取请求
ElevatorCol -> ElevatorCol: 执行请求
InputThread - -> ElevatorCol: 启动新增纵向电梯
InputThread - -> ElevatorRow:启动新增横向电梯
WaitTable -> ElevatorRow: 获取请求
ElevatorRow -> ElevatorRow: 执行请求
InputThread ->WaitTable:结束信号
WaitTable ->ElevatorCol:发出结束信号

ElevatorCol -> ElevatorCol: 电梯线程自行结束
ElevatorRow -> ElevatorRow: 电梯线程自行结束
@enduml

PlantUML version 1.2022.4(Sat Apr 09 21:29:17 CST 2022)
(GPL source distribution)
Java Runtime: OpenJDK Runtime Environment
JVM: OpenJDK 64-Bit Server VM
Default Encoding: GBK
Language: zh
Country: CN
--></g></svg>