<svg version="1.1" xmlns="http://www.w3.org/2000/svg" xmlns:xlink="http://www.w3.org/1999/xlink" width="1145.19775390625" height="377"><defs/><g><text fill="#eeeeee" stroke="none" font-family="Arial" font-size="24px" font-style="normal" font-weight="normal" text-decoration="none" x="0" y="0">UNREGISTERED</text><text fill="#eeeeee" stroke="none" font-family="Arial" font-size="24px" font-style="normal" font-weight="normal" text-decoration="none" x="0" y="30">UNREGISTERED</text><text fill="#eeeeee" stroke="none" font-family="Arial" font-size="24px" font-style="normal" font-weight="normal" text-decoration="none" x="0" y="60">UNREGISTERED</text><text fill="#eeeeee" stroke="none" font-family="Arial" font-size="24px" font-style="normal" font-weight="normal" text-decoration="none" x="0" y="90">UNREGISTERED</text><text fill="#eeeeee" stroke="none" font-family="Arial" font-size="24px" font-style="normal" font-weight="normal" text-decoration="none" x="0" y="120">UNREGISTERED</text><text fill="#eeeeee" stroke="none" font-family="Arial" font-size="24px" font-style="normal" font-weight="normal" text-decoration="none" x="0" y="150">UNREGISTERED</text><text fill="#eeeeee" stroke="none" font-family="Arial" font-size="24px" font-style="normal" font-weight="normal" text-decoration="none" x="0" y="180">UNREGISTERED</text><text fill="#eeeeee" stroke="none" font-family="Arial" font-size="24px" font-style="normal" font-weight="normal" text-decoration="none" x="0" y="210">UNREGISTERED</text><text fill="#eeeeee" stroke="none" font-family="Arial" font-size="24px" font-style="normal" font-weight="normal" text-decoration="none" x="0" y="240">UNREGISTERED</text><text fill="#eeeeee" stroke="none" font-family="Arial" font-size="24px" font-style="normal" font-weight="normal" text-decoration="none" x="0" y="270">UNREGISTERED</text><text fill="#eeeeee" stroke="none" font-family="Arial" font-size="24px" font-style="normal" font-weight="normal" text-decoration="none" x="0" y="300">UNREGISTERED</text><text fill="#eeeeee" stroke="none" font-family="Arial" font-size="24px" font-style="normal" font-weight="normal" text-decoration="none" x="0" y="330">UNREGISTERED</text><text fill="#eeeeee" stroke="none" font-family="Arial" font-size="24px" font-style="normal" font-weight="normal" text-decoration="none" x="0" y="360">UNREGISTERED</text><text fill="#eeeeee" stroke="none" font-family="Arial" font-size="24px" font-style="normal" font-weight="normal" text-decoration="none" x="200" y="0">UNREGISTERED</text><text fill="#eeeeee" stroke="none" font-family="Arial" font-size="24px" font-style="normal" font-weight="normal" text-decoration="none" x="200" y="30">UNREGISTERED</text><text fill="#eeeeee" stroke="none" font-family="Arial" font-size="24px" font-style="normal" font-weight="normal" text-decoration="none" x="200" y="60">UNREGISTERED</text><text fill="#eeeeee" stroke="none" font-family="Arial" font-size="24px" font-style="normal" font-weight="normal" text-decoration="none" x="200" y="90">UNREGISTERED</text><text fill="#eeeeee" stroke="none" font-family="Arial" font-size="24px" font-style="normal" font-weight="normal" text-decoration="none" x="200" y="120">UNREGISTERED</text><text fill="#eeeeee" stroke="none" font-family="Arial" font-size="24px" font-style="normal" font-weight="normal" text-decoration="none" x="200" y="150">UNREGISTERED</text><text fill="#eeeeee" stroke="none" font-family="Arial" font-size="24px" font-style="normal" font-weight="normal" text-decoration="none" x="200" y="180">UNREGISTERED</text><text fill="#eeeeee" stroke="none" font-family="Arial" font-size="24px" font-style="normal" font-weight="normal" text-decoration="none" x="200" y="210">UNREGISTERED</text><text fill="#eeeeee" stroke="none" font-family="Arial" font-size="24px" font-style="normal" font-weight="normal" text-decoration="none" x="200" y="240">UNREGISTERED</text><text fill="#eeeeee" stroke="none" font-family="Arial" font-size="24px" font-style="normal" font-weight="normal" text-decoration="none" x="200" y="270">UNREGISTERED</text><text fill="#eeeeee" stroke="none" font-family="Arial" font-size="24px" font-style="normal" font-weight="normal" text-decoration="none" x="200" y="300">UNREGISTERED</text><text fill="#eeeeee" stroke="none" font-family="Arial" font-size="24px" font-style="normal" font-weight="normal" text-decoration="none" x="200" y="330">UNREGISTERED</text><text fill="#eeeeee" stroke="none" font-family="Arial" font-size="24px" font-style="normal" font-weight="normal" text-decoration="none" x="200" y="360">UNREGISTERED</text><text fill="#eeeeee" stroke="none" font-family="Arial" font-size="24px" font-style="normal" font-weight="normal" text-decoration="none" x="400" y="0">UNREGISTERED</text><text fill="#eeeeee" stroke="none" font-family="Arial" font-size="24px" font-style="normal" font-weight="normal" text-decoration="none" x="400" y="30">UNREGISTERED</text><text fill="#eeeeee" stroke="none" font-family="Arial" font-size="24px" font-style="normal" font-weight="normal" text-decoration="none" x="400" y="60">UNREGISTERED</text><text fill="#eeeeee" stroke="none" font-family="Arial" font-size="24px" font-style="normal" font-weight="normal" text-decoration="none" x="400" y="90">UNREGISTERED</text><text fill="#eeeeee" stroke="none" font-family="Arial" font-size="24px" font-style="normal" font-weight="normal" text-decoration="none" x="400" y="120">UNREGISTERED</text><text fill="#eeeeee" stroke="none" font-family="Arial" font-size="24px" font-style="normal" font-weight="normal" text-decoration="none" x="400" y="150">UNREGISTERED</text><text fill="#eeeeee" stroke="none" font-family="Arial" font-size="24px" font-style="normal" font-weight="normal" text-decoration="none" x="400" y="180">UNREGISTERED</text><text fill="#eeeeee" stroke="none" font-family="Arial" font-size="24px" font-style="normal" font-weight="normal" text-decoration="none" x="400" y="210">UNREGISTERED</text><text fill="#eeeeee" stroke="none" font-family="Arial" font-size="24px" font-style="normal" font-weight="normal" text-decoration="none" x="400" y="240">UNREGISTERED</text><text fill="#eeeeee" stroke="none" font-family="Arial" font-size="24px" font-style="normal" font-weight="normal" text-decoration="none" x="400" y="270">UNREGISTERED</text><text fill="#eeeeee" stroke="none" font-family="Arial" font-size="24px" font-style="normal" font-weight="normal" text-decoration="none" x="400" y="300">UNREGISTERED</text><text fill="#eeeeee" stroke="none" font-family="Arial" font-size="24px" font-style="normal" font-weight="normal" text-decoration="none" x="400" y="330">UNREGISTERED</text><text fill="#eeeeee" stroke="none" font-family="Arial" font-size="24px" font-style="normal" font-weight="normal" text-decoration="none" x="400" y="360">UNREGISTERED</text><text fill="#eeeeee" stroke="none" font-family="Arial" font-size="24px" font-style="normal" font-weight="normal" text-decoration="none" x="600" y="0">UNREGISTERED</text><text fill="#eeeeee" stroke="none" font-family="Arial" font-size="24px" font-style="normal" font-weight="normal" text-decoration="none" x="600" y="30">UNREGISTERED</text><text fill="#eeeeee" stroke="none" font-family="Arial" font-size="24px" font-style="normal" font-weight="normal" text-decoration="none" x="600" y="60">UNREGISTERED</text><text fill="#eeeeee" stroke="none" font-family="Arial" font-size="24px" font-style="normal" font-weight="normal" text-decoration="none" x="600" y="90">UNREGISTERED</text><text fill="#eeeeee" stroke="none" font-family="Arial" font-size="24px" font-style="normal" font-weight="normal" text-decoration="none" x="600" y="120">UNREGISTERED</text><text fill="#eeeeee" stroke="none" font-family="Arial" font-size="24px" font-style="normal" font-weight="normal" text-decoration="none" x="600" y="150">UNREGISTERED</text><text fill="#eeeeee" stroke="none" font-family="Arial" font-size="24px" font-style="normal" font-weight="normal" text-decoration="none" x="600" y="180">UNREGISTERED</text><text fill="#eeeeee" stroke="none" font-family="Arial" font-size="24px" font-style="normal" font-weight="normal" text-decoration="none" x="600" y="210">UNREGISTERED</text><text fill="#eeeeee" stroke="none" font-family="Arial" font-size="24px" font-style="normal" font-weight="normal" text-decoration="none" x="600" y="240">UNREGISTERED</text><text fill="#eeeeee" stroke="none" font-family="Arial" font-size="24px" font-style="normal" font-weight="normal" text-decoration="none" x="600" y="270">UNREGISTERED</text><text fill="#eeeeee" stroke="none" font-family="Arial" font-size="24px" font-style="normal" font-weight="normal" text-decoration="none" x="600" y="300">UNREGISTERED</text><text fill="#eeeeee" stroke="none" font-family="Arial" font-size="24px" font-style="normal" font-weight="normal" text-decoration="none" x="600" y="330">UNREGISTERED</text><text fill="#eeeeee" stroke="none" font-family="Arial" font-size="24px" font-style="normal" font-weight="normal" text-decoration="none" x="600" y="360">UNREGISTERED</text><text fill="#eeeeee" stroke="none" font-family="Arial" font-size="24px" font-style="normal" font-weight="normal" text-decoration="none" x="800" y="0">UNREGISTERED</text><text fill="#eeeeee" stroke="none" font-family="Arial" font-size="24px" font-style="normal" font-weight="normal" text-decoration="none" x="800" y="30">UNREGISTERED</text><text fill="#eeeeee" stroke="none" font-family="Arial" font-size="24px" font-style="normal" font-weight="normal" text-decoration="none" x="800" y="60">UNREGISTERED</text><text fill="#eeeeee" stroke="none" font-family="Arial" font-size="24px" font-style="normal" font-weight="normal" text-decoration="none" x="800" y="90">UNREGISTERED</text><text fill="#eeeeee" stroke="none" font-family="Arial" font-size="24px" font-style="normal" font-weight="normal" text-decoration="none" x="800" y="120">UNREGISTERED</text><text fill="#eeeeee" stroke="none" font-family="Arial" font-size="24px" font-style="normal" font-weight="normal" text-decoration="none" x="800" y="150">UNREGISTERED</text><text fill="#eeeeee" stroke="none" font-family="Arial" font-size="24px" font-style="normal" font-weight="normal" text-decoration="none" x="800" y="180">UNREGISTERED</text><text fill="#eeeeee" stroke="none" font-family="Arial" font-size="24px" font-style="normal" font-weight="normal" text-decoration="none" x="800" y="210">UNREGISTERED</text><text fill="#eeeeee" stroke="none" font-family="Arial" font-size="24px" font-style="normal" font-weight="normal" text-decoration="none" x="800" y="240">UNREGISTERED</text><text fill="#eeeeee" stroke="none" font-family="Arial" font-size="24px" font-style="normal" font-weight="normal" text-decoration="none" x="800" y="270">UNREGISTERED</text><text fill="#eeeeee" stroke="none" font-family="Arial" font-size="24px" font-style="normal" font-weight="normal" text-decoration="none" x="800" y="300">UNREGISTERED</text><text fill="#eeeeee" stroke="none" font-family="Arial" font-size="24px" font-style="normal" font-weight="normal" text-decoration="none" x="800" y="330">UNREGISTERED</text><text fill="#eeeeee" stroke="none" font-family="Arial" font-size="24px" font-style="normal" font-weight="normal" text-decoration="none" x="800" y="360">UNREGISTERED</text><text fill="#eeeeee" stroke="none" font-family="Arial" font-size="24px" font-style="normal" font-weight="normal" text-decoration="none" x="1000" y="0">UNREGISTERED</text><text fill="#eeeeee" stroke="none" font-family="Arial" font-size="24px" font-style="normal" font-weight="normal" text-decoration="none" x="1000" y="30">UNREGISTERED</text><text fill="#eeeeee" stroke="none" font-family="Arial" font-size="24px" font-style="normal" font-weight="normal" text-decoration="none" x="1000" y="60">UNREGISTERED</text><text fill="#eeeeee" stroke="none" font-family="Arial" font-size="24px" font-style="normal" font-weight="normal" text-decoration="none" x="1000" y="90">UNREGISTERED</text><text fill="#eeeeee" stroke="none" font-family="Arial" font-size="24px" font-style="normal" font-weight="normal" text-decoration="none" x="1000" y="120">UNREGISTERED</text><text fill="#eeeeee" stroke="none" font-family="Arial" font-size="24px" font-style="normal" font-weight="normal" text-decoration="none" x="1000" y="150">UNREGISTERED</text><text fill="#eeeeee" stroke="none" font-family="Arial" font-size="24px" font-style="normal" font-weight="normal" text-decoration="none" x="1000" y="180">UNREGISTERED</text><text fill="#eeeeee" stroke="none" font-family="Arial" font-size="24px" font-style="normal" font-weight="normal" text-decoration="none" x="1000" y="210">UNREGISTERED</text><text fill="#eeeeee" stroke="none" font-family="Arial" font-size="24px" font-style="normal" font-weight="normal" text-decoration="none" x="1000" y="240">UNREGISTERED</text><text fill="#eeeeee" stroke="none" font-family="Arial" font-size="24px" font-style="normal" font-weight="normal" text-decoration="none" x="1000" y="270">UNREGISTERED</text><text fill="#eeeeee" stroke="none" font-family="Arial" font-size="24px" font-style="normal" font-weight="normal" text-decoration="none" x="1000" y="300">UNREGISTERED</text><text fill="#eeeeee" stroke="none" font-family="Arial" font-size="24px" font-style="normal" font-weight="normal" text-decoration="none" x="1000" y="330">UNREGISTERED</text><text fill="#eeeeee" stroke="none" font-family="Arial" font-size="24px" font-style="normal" font-weight="normal" text-decoration="none" x="1000" y="360">UNREGISTERED</text><g transform="translate(-14,-62) scale(1,1)"><path fill="#C0C0C0" stroke="none" d="M 358.98388671875 90.5 C 358.98388671875 84.1487248 364.13261151875 79 370.48388671875 79 C 376.83516191875 79 381.98388671875 84.1487248 381.98388671875 90.5 C 381.98388671875 96.8512752 376.83516191875 102 370.48388671875 102 C 364.13261151875 102 358.98388671875 96.8512752 358.98388671875 90.5 Z" opacity="0.2"/></g><g transform="translate(-14,-62) scale(1,1)"><path fill="#ffffff" stroke="none" d="M 351.98388671875 83.5 C 351.98388671875 77.1487248 357.13261151875 72 363.48388671875 72 C 369.83516191875 72 374.98388671875 77.1487248 374.98388671875 83.5 C 374.98388671875 89.8512752 369.83516191875 95 363.48388671875 95 C 357.13261151875 95 351.98388671875 89.8512752 351.98388671875 83.5 Z"/></g><g transform="translate(-14,-62) scale(1,1)"><path fill="none" stroke="#000000" d="M 351.98388671875 83.5 C 351.98388671875 77.1487248 357.13261151875 72 363.48388671875 72 C 369.83516191875 72 374.98388671875 77.1487248 374.98388671875 83.5 C 374.98388671875 89.8512752 369.83516191875 95 363.48388671875 95 C 357.13261151875 95 351.98388671875 89.8512752 351.98388671875 83.5 Z" stroke-miterlimit="10"/></g><g transform="translate(-14,-62) scale(1,1)"><path fill="none" stroke="#000000" d="M 176 120 L 550.9677734375 120" stroke-miterlimit="10"/></g><g transform="translate(-14,-62) scale(1,1)"><g><path fill="none" stroke="none"/><text fill="#000000" stroke="none" font-family="Arial" font-size="13px" font-style="normal" font-weight="bold" text-decoration="none" x="325.90576171875" y="114.5">CountChains</text></g></g><g transform="translate(-14,-62) scale(1,1)"><g><path fill="none" stroke="none"/><text fill="#000000" stroke="none" font-family="Arial" font-size="13px" font-style="normal" font-weight="normal" text-decoration="none" x="181" y="137.5">+int gen_chains_all(char* words[], int len, char* result[]);()</text></g></g><g transform="translate(-14,-62) scale(1,1)"><g><path fill="none" stroke="none"/><text fill="#000000" stroke="none" font-family="Arial" font-size="13px" font-style="normal" font-weight="normal" text-decoration="none" x="181" y="152.5">+void dfsAllChain(Graph *g,int start,vector&lt;string&gt;* dfsChain);()</text></g></g><g transform="translate(-14,-62) scale(1,1)"><g><path fill="none" stroke="none"/><text fill="#000000" stroke="none" font-family="Arial" font-size="13px" font-style="normal" font-weight="normal" text-decoration="none" x="181" y="167.5">+void dfsAllChain(Graph *g,int start,vector&lt;string&gt;* dfsChain);()</text></g></g><g transform="translate(-14,-62) scale(1,1)"><rect fill="#C0C0C0" stroke="none" x="735" y="231" width="421.19775390625" height="175" opacity="0.2"/></g><g transform="translate(-14,-62) scale(1,1)"><rect fill="#ffffff" stroke="none" x="728" y="224" width="421.19775390625" height="175"/></g><g transform="translate(-14,-62) scale(1,1)"><path fill="none" stroke="#000000" d="M 728 224 L 1149.19775390625 224 L 1149.19775390625 399 L 728 399 L 728 224 Z Z" stroke-miterlimit="10"/></g><g transform="translate(-14,-62) scale(1,1)"><path fill="none" stroke="#000000" d="M 728 249 L 1149.19775390625 249" stroke-miterlimit="10"/></g><g transform="translate(-14,-62) scale(1,1)"><path fill="none" stroke="#000000" d="M 728 332 L 1149.19775390625 332" stroke-miterlimit="10"/></g><g transform="translate(-14,-62) scale(1,1)"><g><path fill="none" stroke="none"/><text fill="#000000" stroke="none" font-family="Arial" font-size="13px" font-style="normal" font-weight="bold" text-decoration="none" x="920.533447265625" y="243.5">Graph</text></g></g><g transform="translate(-14,-62) scale(1,1)"><g><path fill="none" stroke="none"/><text fill="#000000" stroke="none" font-family="Arial" font-size="13px" font-style="normal" font-weight="normal" text-decoration="none" x="733" y="266.5">+int inDegree[ALPHA_SIZE]{};</text></g></g><g transform="translate(-14,-62) scale(1,1)"><g><path fill="none" stroke="none"/><text fill="#000000" stroke="none" font-family="Arial" font-size="13px" font-style="normal" font-weight="normal" text-decoration="none" x="733" y="281.5">+vector &lt;Edge*&gt; edgesMartrix[ALPHA_SIZE][ALPHA_SIZE];</text></g></g><g transform="translate(-14,-62) scale(1,1)"><g><path fill="none" stroke="none"/><text fill="#000000" stroke="none" font-family="Arial" font-size="13px" font-style="normal" font-weight="normal" text-decoration="none" x="733" y="296.5">+vector &lt;Edge*&gt; edgesOut[ALPHA_SIZE];</text></g></g><g transform="translate(-14,-62) scale(1,1)"><g><path fill="none" stroke="none"/><text fill="#000000" stroke="none" font-family="Arial" font-size="13px" font-style="normal" font-weight="normal" text-decoration="none" x="733" y="311.5">+vector &lt;int&gt; edgesOutPoints[ALPHA_SIZE];</text></g></g><g transform="translate(-14,-62) scale(1,1)"><g><path fill="none" stroke="none"/><text fill="#000000" stroke="none" font-family="Arial" font-size="13px" font-style="normal" font-weight="normal" text-decoration="none" x="733" y="326.5">+vector &lt;Edge*&gt; selfEdge[ALPHA_SIZE];</text></g></g><g transform="translate(-14,-62) scale(1,1)"><g><path fill="none" stroke="none"/><text fill="#000000" stroke="none" font-family="Arial" font-size="13px" font-style="normal" font-weight="normal" text-decoration="none" x="733" y="349.5">+int topoSort(Graph* graph, vector&lt;int&gt;* result);()</text></g></g><g transform="translate(-14,-62) scale(1,1)"><g><path fill="none" stroke="none"/><text fill="#000000" stroke="none" font-family="Arial" font-size="13px" font-style="normal" font-weight="normal" text-decoration="none" x="733" y="364.5">+void removeLoop(Graph *graph);()</text></g></g><g transform="translate(-14,-62) scale(1,1)"><g><path fill="none" stroke="none"/><text fill="#000000" stroke="none" font-family="Arial" font-size="13px" font-style="normal" font-weight="normal" text-decoration="none" x="733" y="379.5">+void sccInnerDfs(Graph* graph,int start, int now, int length);()</text></g></g><g transform="translate(-14,-62) scale(1,1)"><g><path fill="none" stroke="none"/><text fill="#000000" stroke="none" font-family="Arial" font-size="13px" font-style="normal" font-weight="normal" text-decoration="none" x="733" y="394.5">+void sccInnerDfsChar(Graph * rawGraph,int start, int now, int length);()</text></g></g><g transform="translate(-14,-62) scale(1,1)"><path fill="#C0C0C0" stroke="none" d="M 338.155029296875 218.5 C 338.155029296875 212.1487248 343.303754096875 207 349.655029296875 207 C 356.006304496875 207 361.155029296875 212.1487248 361.155029296875 218.5 C 361.155029296875 224.8512752 356.006304496875 230 349.655029296875 230 C 343.303754096875 230 338.155029296875 224.8512752 338.155029296875 218.5 Z" opacity="0.2"/></g><g transform="translate(-14,-62) scale(1,1)"><path fill="#ffffff" stroke="none" d="M 331.155029296875 211.5 C 331.155029296875 205.1487248 336.303754096875 200 342.655029296875 200 C 349.006304496875 200 354.155029296875 205.1487248 354.155029296875 211.5 C 354.155029296875 217.8512752 349.006304496875 223 342.655029296875 223 C 336.303754096875 223 331.155029296875 217.8512752 331.155029296875 211.5 Z"/></g><g transform="translate(-14,-62) scale(1,1)"><path fill="none" stroke="#000000" d="M 331.155029296875 211.5 C 331.155029296875 205.1487248 336.303754096875 200 342.655029296875 200 C 349.006304496875 200 354.155029296875 205.1487248 354.155029296875 211.5 C 354.155029296875 217.8512752 349.006304496875 223 342.655029296875 223 C 336.303754096875 223 331.155029296875 217.8512752 331.155029296875 211.5 Z" stroke-miterlimit="10"/></g><g transform="translate(-14,-62) scale(1,1)"><path fill="none" stroke="#000000" d="M 24 248 L 661.31005859375 248" stroke-miterlimit="10"/></g><g transform="translate(-14,-62) scale(1,1)"><g><path fill="none" stroke="none"/><text fill="#000000" stroke="none" font-family="Arial" font-size="13px" font-style="normal" font-weight="bold" text-decoration="none" x="300.385986328125" y="242.5">charCountMax</text></g></g><g transform="translate(-14,-62) scale(1,1)"><g><path fill="none" stroke="none"/><text fill="#000000" stroke="none" font-family="Arial" font-size="13px" font-style="normal" font-weight="normal" text-decoration="none" x="29" y="265.5">+int charCountMaxLoopless(Graph * rawGraph, vector&lt;int&gt; *topo, int head, int tail, char * result[]);()</text></g></g><g transform="translate(-14,-62) scale(1,1)"><g><path fill="none" stroke="none"/><text fill="#000000" stroke="none" font-family="Arial" font-size="13px" font-style="normal" font-weight="normal" text-decoration="none" x="29" y="280.5">+int charCountMaxLoop(Graph * rawGraph,  int head, int tail, char * result[]);()</text></g></g><g transform="translate(-14,-62) scale(1,1)"><g><path fill="none" stroke="none"/><text fill="#000000" stroke="none" font-family="Arial" font-size="13px" font-style="normal" font-weight="normal" text-decoration="none" x="29" y="295.5">+int gen_chain_char(char* words[], int len, char* result[], char head, char tail, char reject, bool enable_loop);()</text></g></g><g transform="translate(-14,-62) scale(1,1)"><path fill="#C0C0C0" stroke="none" d="M 347.59912109375 346.5 C 347.59912109375 340.1487248 352.74784589375 335 359.09912109375 335 C 365.45039629375 335 370.59912109375 340.1487248 370.59912109375 346.5 C 370.59912109375 352.8512752 365.45039629375 358 359.09912109375 358 C 352.74784589375 358 347.59912109375 352.8512752 347.59912109375 346.5 Z" opacity="0.2"/></g><g transform="translate(-14,-62) scale(1,1)"><path fill="#ffffff" stroke="none" d="M 340.59912109375 339.5 C 340.59912109375 333.1487248 345.74784589375 328 352.09912109375 328 C 358.45039629375 328 363.59912109375 333.1487248 363.59912109375 339.5 C 363.59912109375 345.8512752 358.45039629375 351 352.09912109375 351 C 345.74784589375 351 340.59912109375 345.8512752 340.59912109375 339.5 Z"/></g><g transform="translate(-14,-62) scale(1,1)"><path fill="none" stroke="#000000" d="M 340.59912109375 339.5 C 340.59912109375 333.1487248 345.74784589375 328 352.09912109375 328 C 358.45039629375 328 363.59912109375 333.1487248 363.59912109375 339.5 C 363.59912109375 345.8512752 358.45039629375 351 352.09912109375 351 C 345.74784589375 351 340.59912109375 345.8512752 340.59912109375 339.5 Z" stroke-miterlimit="10"/></g><g transform="translate(-14,-62) scale(1,1)"><path fill="none" stroke="#000000" d="M 32 376 L 672.1982421875 376" stroke-miterlimit="10"/></g><g transform="translate(-14,-62) scale(1,1)"><g><path fill="none" stroke="none"/><text fill="#000000" stroke="none" font-family="Arial" font-size="13px" font-style="normal" font-weight="bold" text-decoration="none" x="308.385986328125" y="370.5">wordCountMax</text></g></g><g transform="translate(-14,-62) scale(1,1)"><g><path fill="none" stroke="none"/><text fill="#000000" stroke="none" font-family="Arial" font-size="13px" font-style="normal" font-weight="normal" text-decoration="none" x="37" y="393.5">+int gen_chain_word(char* words[], int len, char* result[], char head, char tail, char reject, bool enable_loop);()</text></g></g><g transform="translate(-14,-62) scale(1,1)"><g><path fill="none" stroke="none"/><text fill="#000000" stroke="none" font-family="Arial" font-size="13px" font-style="normal" font-weight="normal" text-decoration="none" x="37" y="408.5">+int wordCountMaxLoopless(Graph * rawGraph, vector&lt;int&gt; *topo,  int head, int tail, char * result[]);()</text></g></g><g transform="translate(-14,-62) scale(1,1)"><g><path fill="none" stroke="none"/><text fill="#000000" stroke="none" font-family="Arial" font-size="13px" font-style="normal" font-weight="normal" text-decoration="none" x="37" y="423.5">+int wordCountMaxLoop(Graph * rawGraph,  int head, int tail, char * result[]);()</text></g></g><g transform="translate(-14,-62) scale(1,1)"><path fill="none" stroke="#000000" d="M 521 174 L 727 242" stroke-miterlimit="10" stroke-dasharray="3"/></g><g transform="translate(-14,-62) scale(1,1)"><path fill="none" stroke="#000000" d="M 716.0299937335268 242.81176506055567 L 727 242 L 718.6690296002687 234.81703875836712" stroke-miterlimit="10"/></g><g transform="translate(-14,-62) scale(1,1)"><path fill="none" stroke="#000000" d="M 662 283 L 727 289" stroke-miterlimit="10" stroke-dasharray="3"/></g><g transform="translate(-14,-62) scale(1,1)"><path fill="none" stroke="#000000" d="M 716.4934210825141 292.2575757014445 L 727 289 L 717.2672729316541 283.8741806690941" stroke-miterlimit="10"/></g><g transform="translate(-14,-62) scale(1,1)"><path fill="none" stroke="#000000" d="M 673 341 L 727 335" stroke-miterlimit="10" stroke-dasharray="3"/></g><g transform="translate(-14,-62) scale(1,1)"><path fill="none" stroke="#000000" d="M 717.3643462280668 340.306050922054 L 727 335 L 716.4346192883949 331.93850846500584" stroke-miterlimit="10"/></g><g transform="translate(-14,-62) scale(1,1)"><rect fill="#C0C0C0" stroke="none" x="847" y="87" width="192" height="102" opacity="0.2"/></g><g transform="translate(-14,-62) scale(1,1)"><rect fill="#ffffff" stroke="none" x="840" y="80" width="192" height="102"/></g><g transform="translate(-14,-62) scale(1,1)"><path fill="none" stroke="#000000" d="M 840 80 L 1032 80 L 1032 182 L 840 182 L 840 80 Z Z" stroke-miterlimit="10"/></g><g transform="translate(-14,-62) scale(1,1)"><path fill="none" stroke="#000000" d="M 840 105 L 1032 105" stroke-miterlimit="10"/></g><g transform="translate(-14,-62) scale(1,1)"><path fill="none" stroke="#000000" d="M 840 173 L 1032 173" stroke-miterlimit="10"/></g><g transform="translate(-14,-62) scale(1,1)"><g><path fill="none" stroke="none"/><text fill="#000000" stroke="none" font-family="Arial" font-size="13px" font-style="normal" font-weight="bold" text-decoration="none" x="920.819580078125" y="99.5">Edge</text></g></g><g transform="translate(-14,-62) scale(1,1)"><g><path fill="none" stroke="none"/><text fill="#000000" stroke="none" font-family="Arial" font-size="13px" font-style="normal" font-weight="normal" text-decoration="none" x="845" y="122.5">+int start</text></g></g><g transform="translate(-14,-62) scale(1,1)"><g><path fill="none" stroke="none"/><text fill="#000000" stroke="none" font-family="Arial" font-size="13px" font-style="normal" font-weight="normal" text-decoration="none" x="845" y="137.5">+int end</text></g></g><g transform="translate(-14,-62) scale(1,1)"><g><path fill="none" stroke="none"/><text fill="#000000" stroke="none" font-family="Arial" font-size="13px" font-style="normal" font-weight="normal" text-decoration="none" x="845" y="152.5">+int weight</text></g></g><g transform="translate(-14,-62) scale(1,1)"><g><path fill="none" stroke="none"/><text fill="#000000" stroke="none" font-family="Arial" font-size="13px" font-style="normal" font-weight="normal" text-decoration="none" x="845" y="167.5">+string word</text></g></g><g transform="translate(-14,-62) scale(1,1)"><path fill="none" stroke="#000000" d="M 937 183 L 937 223" stroke-miterlimit="10"/></g><g transform="translate(-14,-62) scale(1,1)"><path fill="#000000" stroke="none" d="M 932.790482243984 212.83732514237585 L 937 223 L 941.209517756016 212.83732514237585 L 937 201"/></g><g transform="translate(-14,-62) scale(1,1)"><path fill="none" stroke="#000000" d="M 932.790482243984 212.83732514237585 L 937 223 L 941.209517756016 212.83732514237585 L 937 201 L 932.790482243984 212.83732514237585" stroke-miterlimit="10"/></g></g></svg>